<svg fill="none" height="21" viewBox="0 0 60 21" width="60" xmlns="http://www.w3.org/2000/svg"><path d="m46 0h3v15h-3z" fill="#34a85e"/><path clip-rule="evenodd" d="m22 4h-6v2h-1v1h-2v9h9zm-6 9v-6h3v6z" fill="#ea4335" fill-rule="evenodd"/><path clip-rule="evenodd" d="m33 4h-6v2h-1v1h-2v9h9zm-6 9v-6h3v6z" fill="#fbbc05" fill-rule="evenodd"/><path clip-rule="evenodd" d="m38 4h6v17h-9v-3h6v-2h-6v-9h2v-1h1zm3 3v6h-3v-6z" fill="#4285f4" fill-rule="evenodd"/><g fill="#ea4335"><path d="m51 12h9v3h-9z"/><path d="m54 4h6v3h-6z"/><path d="m54 8h6v3h-6z"/><path d="m57 7h3v1h-3z"/><path d="m51 7h3v5h-3z"/><path d="m53 6h1v1h-1z"/></g><path d="m0 0v13h3v1h1v2h7v-8h-4v5h-3v-9h5v-4z" fill="#4285f4"/></svg>